# xmcd
#
# Track frame offsets: 
#        150
#        6609
#        22515
#        38907
#        51563
#        62951
#        76721
#        88607
#        101364
#        117952
#
# Disc length: 1742 seconds
#
# Revision: 0
# Processed by: cddbd v1.5.2PL0 Copyright (c) Steve Scherf et al.
# Submitted via: ExactAudioCopy v0.95b4
#
DISCID=7506cc0a
DTITLE=Aretha Franklin - Collections
DYEAR=2005
DGENRE=Blues
TTITLE0=This Could Be The Start Of Something Big
TTITLE1=What A Difference A Day Makes
TTITLE2=Misty
TTITLE3=Mockingbird
TTITLE4=Love For Sale
TTITLE5=God Bless The Child
TTITLE6=You'll Loose A Good Thing
TTITLE7=Every Little Bit Hurts
TTITLE8=Unforgettable
TTITLE9=Walk On By
EXTD=
EXTT0=
EXTT1=
EXTT2=
EXTT3=
EXTT4=
EXTT5=
EXTT6=
EXTT7=
EXTT8=
EXTT9=
PLAYORDER=
